
<svg version="1.0" xmlns="http://www.w3.org/2000/svg"
 width="512.000000pt" height="512.000000pt" viewBox="0 0 512.000000 512.000000"
 preserveAspectRatio="xMidYMid meet">

<g transform="translate(0.000000,512.000000) scale(0.100000,-0.100000)"
fill="green" stroke="green">
<path d="M2915 5059 c-306 -39 -592 -229 -751 -499 -89 -150 -144 -340 -144
-497 l0 -82 -292 -3 -293 -3 -48 -28 c-70 -41 -96 -87 -107 -188 -5 -46 -26
-343 -46 -659 -21 -316 -38 -576 -39 -578 -1 -1 -44 -9 -96 -17 -259 -40 -474
-144 -658 -320 -232 -221 -359 -492 -386 -820 -14 -170 29 -406 105 -580 136
-310 422 -571 730 -669 203 -65 57 -60 1895 -64 1212 -2 1692 0 1750 8 276 40
475 229 521 495 l16 90 -136 1575 c-75 866 -141 1593 -147 1615 -14 51 -81
117 -136 133 -27 8 -128 12 -317 12 l-276 0 0 83 c0 45 -9 123 -19 172 -92
443 -445 770 -891 825 -96 11 -136 11 -235 -1z m307 -442 c157 -57 278 -166
346 -309 46 -95 60 -148 69 -253 l6 -75 -612 0 -611 0 0 44 c0 84 29 199 71
286 77 155 223 275 391 320 101 28 245 22 340 -13z m-1212 -1227 c0 -149 2
-176 19 -209 64 -125 218 -158 325 -70 66 55 76 93 76 282 l0 167 614 0 615 0
3 -179 3 -179 30 -44 c34 -48 119 -98 169 -98 54 0 106 20 146 56 66 59 74 87
78 277 l4 167 164 0 c163 0 164 0 164 -22 0 -13 54 -664 121 -1448 132 -1551
128 -1475 72 -1548 -14 -19 -44 -43 -67 -53 -39 -18 -90 -19 -1199 -19 l-1157
0 48 63 c254 326 325 763 188 1165 -119 348 -430 654 -770 759 l-58 18 5 55
c3 30 20 274 38 543 l33 487 168 0 168 0 0 -170z m-535 -1304 c148 -40 313
-147 407 -264 89 -110 155 -261 178 -402 55 -353 -132 -712 -453 -870 -122
-59 -190 -75 -337 -75 -190 0 -328 47 -478 162 -286 219 -395 608 -266 952 93
247 324 447 584 506 82 19 280 13 365 -9z"/>
<path d="M865 1804 c-42 -21 -91 -71 -110 -110 -21 -45 -19 -127 4 -172 11
-20 62 -79 115 -131 l95 -95 -97 -101 c-111 -115 -132 -151 -132 -227 1 -115
93 -198 223 -198 64 0 108 27 214 132 l102 102 43 -50 c141 -162 184 -193 266
-194 147 -1 252 153 197 288 -9 21 -61 82 -118 140 l-102 102 102 103 c57 57
109 118 118 139 55 135 -49 288 -196 288 -73 0 -110 -22 -224 -132 l-101 -97
-95 95 c-52 53 -111 104 -131 115 -46 23 -131 25 -173 3z"/>
</g>
</svg>
